<?xml version="1.0" encoding="utf-8"?>
<svg version="1.1" xmlns:xlink="http://www.w3.org/1999/xlink" width="170px" height="170px" xmlns="http://www.w3.org/2000/svg">
  <g transform="matrix(1 0 0 1 -126 -642 )">
    <path d="M 211 661  C 247.96 661  277 690.04  277 727  C 277 763.96  247.96 793  211 793  C 174.04 793  145 763.96  145 727  C 145 690.04  174.04 661  211 661  Z " fill-rule="nonzero" fill="#bfbebe" stroke="none" />
    <path d="M 211 652  C 253 652  286 685  286 727  C 286 769  253 802  211 802  C 169 802  136 769  136 727  C 136 685  169 652  211 652  Z " stroke-width="20" stroke="#dfdfdf" fill="none" />
  </g>
</svg>